<svg xmlns="http://www.w3.org/2000/svg" width="1706.667" height="1706.667" version="1.0" viewBox="0 0 1280 1280"><path fill="currentColor" d="M220 .7C196.6 3 182.2 6 163.5 12.1 129.4 23.3 98 43 70.5 70.5c-38.9 39-60.9 83.1-68.7 138-1.9 13.2-1.9 849.8 0 863 7.8 54.8 29.9 99.3 68.6 138.1 38.8 38.7 83.3 60.8 138.1 68.6 13.2 1.9 849.8 1.9 863 0 54.9-7.8 99-29.8 138-68.7 38.9-39 60.9-83.1 68.7-138 1.9-13.2 1.9-849.8 0-863-5.3-37.5-17.1-69.5-36.1-98-10.4-15.8-18.9-26.2-31.9-39.2-38.4-38.6-80.2-60-134.7-69.1-9.2-1.5-42.9-1.7-431-1.8C412.9.4 221.9.5 220 .7zm101.7 216.7c31.8 6.5 56.8 25.3 70.3 53.1 12.4 25.5 13.7 56.4 3.3 82.3-8.6 21.8-28.5 42.1-50.7 52.2-29.8 13.5-73.1 13.3-102.5-.6-12.1-5.7-19.8-11.3-29.1-21-12.6-13.2-20-26.4-24.2-43.1-1.9-7.4-2.3-11.4-2.3-25.8.1-14.5.4-18.2 2.4-25.5 4.6-17 12.4-30.5 25-43.1 15.5-15.5 35.7-25.6 57.1-28.8 4.1-.6 8.6-1.3 10-1.5 5-.9 33.7.4 40.7 1.8zm575.8 265c25.7 3.8 44.3 9.4 65 19.6 56.1 27.4 93.2 75.7 109.4 142.3 10.6 43.5 11.3 59 10.9 269.2l-.3 158-96.2.3-96.2.2-.4-168.7c-.3-185.1 0-174.7-6.2-199.3-10.4-40.7-33.7-64.3-69.7-70.6-12.8-2.2-37-1.4-48.2 1.6-16.4 4.4-29.6 12.2-42.9 25.3-10.5 10.4-17.4 19.7-23.7 31.9-6.3 12.1-8.7 21.4-10 38.2-.6 8-1 77.4-1 177.3V1072H496.2l.2-289.5.1-289.5H688l.2 40.7.3 40.8 5.3-7.7c11.6-17.2 30.8-37.4 46.2-48.9 27.4-20.5 59.7-32.8 96.5-36.8 12.1-1.3 48.6-.5 61 1.3zM390 782.5V1072l-96.2-.2-96.3-.3-.3-288c-.1-158.4 0-288.6.3-289.3.3-.9 20.6-1.2 96.5-1.2h96v289.5z"/></svg>